<?xml version="1.0" ?><svg id="Capa_1" style="enable-background:new 0 0 512 512;" version="1.1" viewBox="0 0 512 512" xml:space="preserve" xmlns="http://www.w3.org/2000/svg" xmlns:xlink="http://www.w3.org/1999/xlink"><path d="M336,170c-2.01,0-4.01,0.04-6,0.12c-83.86,3.33-156.55,76.02-159.88,159.88  c-0.08,1.99-0.12,3.99-0.12,6c0,88.37,77.63,166,166,166s166-77.63,166-166S424.37,170,336,170z" style="fill:#FEB756;"/><path d="M329.99,168.97c-0.54-87.55-71.41-158.42-158.96-158.96C170.69,10,170.34,10,170,10  c-0.35,0-0.69,0-1.03,0.01C81.42,10.55,10.55,81.42,10.01,168.97C10,169.31,10,169.65,10,170c0,44.18,17.91,84.18,46.86,113.14  C85.82,312.09,125.82,330,170,330h0.12c3.33-83.86,76.02-156.55,159.88-159.88V170C330,169.65,330,169.31,329.99,168.97z" style="fill:#4DBBEB;"/><path d="M276,243c5.52,0,10-4.48,10-10s-4.48-10-10-10s-10,4.48-10,10S270.48,243,276,243z"/><path d="M339.705,160.051c-2.389-41.663-19.768-80.535-49.495-110.261C258.44,18.021,216.226,0.35,171.32,0.014  c-0.001,0-0.002,0-0.004,0c-0.006,0-0.012,0-0.018,0c-0.005,0-0.009-0.001-0.014-0.001c-0.004,0-0.009,0-0.013,0  c-0.06,0-0.121-0.003-0.181-0.003c-0.021,0-0.042,0-0.063,0c-0.005,0-0.01,0.001-0.015,0.001C170.675,0.004,170.334,0,170,0  c-0.345,0-0.678,0.004-1.013,0.01c-0.005,0-0.01-0.001-0.015-0.001c-0.021,0-0.042,0-0.063,0c-0.06,0-0.121,0.003-0.181,0.003  c-0.005,0-0.009,0-0.013,0c-0.005,0-0.009,0.001-0.014,0.001c-0.006,0-0.012,0-0.018,0c-0.001,0-0.002,0-0.004,0  C123.774,0.35,81.56,18.021,49.79,49.79C18.021,81.559,0.351,123.772,0.014,168.677c0,0.002,0,0.004,0,0.005  c0,0.009,0,0.018,0,0.027c0,0.066-0.003,0.132-0.004,0.198c0,0.01,0.001,0.019,0.001,0.029C0.004,169.288,0,169.639,0,170  c0,45.401,17.682,88.092,49.79,120.212c29.76,29.75,68.6,47.103,110.261,49.492C162.18,431.912,243.48,512,336,512  c93.757,0,176-82.243,176-176C512,243.48,431.912,162.181,339.705,160.051z M160,100.161V160h-59.839  c0.581-18.541,2.788-36.391,6.581-53.259C123.61,102.949,141.46,100.742,160,100.161z M180,100.161  c18.541,0.581,36.391,2.788,53.258,6.581c3.793,16.868,6,34.718,6.581,53.258H180V100.161z M259.851,160  c-0.48-16.296-2.143-32.124-4.96-47.311c33.952,11.196,57.232,28.562,63.449,47.311H259.851z M180,80.149V21.655  c18.739,6.205,36.111,29.489,47.311,63.453C212.123,82.292,196.296,80.629,180,80.149z M160,21.655v58.494  c-16.296,0.48-32.123,2.143-47.311,4.96C123.889,51.144,141.261,27.861,160,21.655z M80.149,160H21.655  c6.206-18.739,29.49-36.112,63.454-47.312C82.292,127.876,80.629,143.704,80.149,160z M80.149,180  c0.48,16.297,2.143,32.125,4.961,47.313C51.06,216.098,27.849,198.751,21.665,180H80.149z M106.742,233.258  c-3.793-16.868-6-34.717-6.581-53.258H160v59.839C141.459,239.258,123.609,237.051,106.742,233.258z M190.709,239.31  c-3.53,0.237-7.108,0.412-10.709,0.526V180h59.836c-0.115,3.601-0.289,7.179-0.526,10.709c-9.361,6.432-18.246,13.807-26.519,22.081  C204.517,221.064,197.141,229.949,190.709,239.31z M311.068,119.202c-15.299-12.024-36.145-22.024-61.315-28.957  c-6.933-25.169-16.932-46.014-28.956-61.313C262.58,44.11,295.89,77.42,311.068,119.202z M119.202,28.932  c-12.024,15.299-22.023,36.145-28.956,61.314c-25.169,6.932-46.014,16.931-61.313,28.951C44.113,77.418,77.422,44.11,119.202,28.932  z M63.932,276.069c-15.913-15.918-27.809-34.781-35.181-55.357c15.295,12.054,36.195,22.077,61.497,29.044  c6.965,25.296,16.979,46.198,29.03,61.491C98.706,303.875,79.848,291.98,63.932,276.069z M112.687,254.891  c15.188,2.817,31.016,4.48,47.313,4.96v58.484C141.248,312.151,123.902,288.94,112.687,254.891z M336,492  c-83.103,0-156-72.897-156-156c0-1.867,0.038-3.75,0.112-5.604c3.111-78.351,71.933-147.173,150.285-150.284  c0.001,0,0.003,0,0.005,0C332.25,180.038,334.133,180,336,180c83.103,0,156,72.897,156,156S419.103,492,336,492z"/><path d="M429.385,242.615C404.209,217.439,370.171,203,336,203c-7.751,0-15.55,0.695-23.18,2.068  c-5.436,0.978-9.05,6.176-8.072,11.612c0.978,5.435,6.174,9.053,11.612,8.071C322.825,223.59,329.433,223,336,223  c60.196,0,113,52.804,113,113s-52.804,113-113,113s-113-52.804-113-113c0-21.756,9.021-47.082,24.132-67.748  c3.26-4.458,2.289-10.715-2.17-13.975c-4.458-3.261-10.715-2.288-13.975,2.17C213.463,280.414,203,310.153,203,336  c0,34.171,14.439,68.209,39.615,93.385C267.791,454.561,301.829,469,336,469s68.209-14.439,93.385-39.615  C454.561,404.209,469,370.171,469,336S454.561,267.791,429.385,242.615z"/><path d="M336,246c-5.523,0-10,4.478-10,10v10h-10c-16.542,0-30,13.458-30,30v20c0,16.542,13.458,30,30,30h10v40h-10  c-5.514,0-10-4.486-10-10c0-5.522-4.477-10-10-10s-10,4.478-10,10c0,16.542,13.458,30,30,30h10v10c0,5.522,4.477,10,10,10  s10-4.478,10-10v-10h10c16.542,0,30-13.458,30-30v-20c0-16.542-13.458-30-30-30h-10v-40h10c5.514,0,10,4.486,10,10  c0,5.522,4.477,10,10,10s10-4.478,10-10c0-16.542-13.458-30-30-30h-10v-10C346,250.478,341.523,246,336,246z M356,346  c5.514,0,10,4.486,10,10v20c0,5.514-4.486,10-10,10h-10v-40H356z M326,326h-10c-5.514,0-10-4.486-10-10v-20c0-5.514,4.486-10,10-10  h10V326z"/><path d="M336,46h20c5.523,0,10-4.478,10-10s-4.477-10-10-10h-20c-5.523,0-10,4.478-10,10S330.477,46,336,46z"/><path d="M396,46h20c5.523,0,10-4.478,10-10s-4.477-10-10-10h-20c-5.523,0-10,4.478-10,10S390.477,46,396,46z"/><path d="M476,146c-5.523,0-10,4.478-10,10v20c0,5.522,4.477,10,10,10s10-4.478,10-10v-20C486,150.478,481.523,146,476,146z"/><path d="M486,96c0-5.522-4.477-10-10-10s-10,4.478-10,10v20c0,5.522,4.477,10,10,10s10-4.478,10-10V96z"/><path d="M456,46c5.514,0,10,4.486,10,10c0,5.522,4.477,10,10,10s10-4.478,10-10c0-16.542-13.458-30-30-30c-5.523,0-10,4.478-10,10  S450.477,46,456,46z"/><path d="M176,466h-20c-5.523,0-10,4.478-10,10s4.477,10,10,10h20c5.523,0,10-4.478,10-10S181.523,466,176,466z"/><path d="M116,466H96c-5.523,0-10,4.478-10,10s4.477,10,10,10h20c5.523,0,10-4.478,10-10S121.523,466,116,466z"/><path d="M36,366c5.523,0,10-4.478,10-10v-20c0-5.522-4.477-10-10-10s-10,4.478-10,10v20C26,361.522,30.477,366,36,366z"/><path d="M26,416c0,5.522,4.477,10,10,10s10-4.478,10-10v-20c0-5.522-4.477-10-10-10s-10,4.478-10,10V416z"/><path d="M56,466c-5.514,0-10-4.486-10-10c0-5.522-4.477-10-10-10s-10,4.478-10,10c0,16.542,13.458,30,30,30c5.523,0,10-4.478,10-10  S61.523,466,56,466z"/><g/><g/><g/><g/><g/><g/><g/><g/><g/><g/><g/><g/><g/><g/><g/></svg>