<?xml version="1.0" ?><svg viewBox="0 0 64 64" xmlns="http://www.w3.org/2000/svg"><defs><style>.cls-1{fill:#e0e5eb;}.cls-2{fill:#f64f7d;}.cls-3{fill:#4f9ff6;}.cls-4{fill:#3f76d3;}.cls-5{fill:#18181f;}</style></defs><g id="Networking"><path class="cls-1" d="M32,22.19A9.81,9.81,0,1,1,22.19,32,9.81,9.81,0,0,1,32,22.19"/><path class="cls-2" d="M32,26.07a2.59,2.59,0,1,1-2.59,2.59A2.59,2.59,0,0,1,32,26.07"/><path class="cls-2" d="M32,34.34a7.48,7.48,0,0,0-6.75,4.27l-.19.31A9.79,9.79,0,0,0,39,38.87l-.25-.26A7.49,7.49,0,0,0,32,34.34"/><path class="cls-3" d="M32,4a4.93,4.93,0,1,1-4.93,4.93A4.93,4.93,0,0,1,32,4"/><path class="cls-3" d="M32,50.14a4.93,4.93,0,1,1-4.93,4.93A4.93,4.93,0,0,1,32,50.14"/><path class="cls-3" d="M60,32a4.94,4.94,0,1,1-4.93-4.93A4.93,4.93,0,0,1,60,32"/><path class="cls-3" d="M13.87,32a4.94,4.94,0,1,1-4.94-4.93A4.94,4.94,0,0,1,13.87,32"/><path class="cls-3" d="M51.8,12.2a4.94,4.94,0,1,1-7,0,4.93,4.93,0,0,1,7,0"/><path class="cls-3" d="M19.18,44.82a4.94,4.94,0,1,1-7,0,4.95,4.95,0,0,1,7,0"/><path class="cls-3" d="M51.8,51.8a4.94,4.94,0,1,1,0-7,4.93,4.93,0,0,1,0,7"/><path class="cls-3" d="M19.18,19.18a4.94,4.94,0,1,1,0-7,4.95,4.95,0,0,1,0,7"/><path class="cls-4" d="M31.91,50.14a4.78,4.78,0,0,0-1.25.18,4.93,4.93,0,0,1,0,9.49A4.72,4.72,0,0,0,32,60a4.93,4.93,0,1,0,0-9.86h-.09"/><path class="cls-4" d="M48.36,43.38a4.67,4.67,0,0,0-1.39.19,4.92,4.92,0,0,1,2.15,8.23h0A5,5,0,0,1,47,53.06a4.94,4.94,0,0,0,4.83-8.24h0a5,5,0,0,0-3.44-1.44"/><path class="cls-4" d="M15.74,43.38a4.67,4.67,0,0,0-1.39.19A4.92,4.92,0,0,1,16.5,51.8h0a5,5,0,0,1-2.15,1.26,4.94,4.94,0,0,0,4.83-8.24h0a5,5,0,0,0-3.44-1.44"/><path class="cls-4" d="M55,27.07a5.32,5.32,0,0,0-1.26.18,4.94,4.94,0,0,1,0,9.5,4.93,4.93,0,1,0,1.34-9.68H55"/><path class="cls-4" d="M8.84,27.07a5.31,5.31,0,0,0-1.25.18,4.94,4.94,0,0,1,0,9.5,5.09,5.09,0,0,0,1.34.18,4.93,4.93,0,0,0,0-9.86H8.84"/><path class="cls-4" d="M48.36,10.76a5,5,0,0,0-1.39.18,5,5,0,0,1,2.15,1.26,5,5,0,0,1,0,7h0A5,5,0,0,1,47,20.44,4.94,4.94,0,0,0,51.8,12.2h0a5,5,0,0,0-3.44-1.44"/><path class="cls-4" d="M15.74,10.76a5,5,0,0,0-1.39.18A5,5,0,0,1,16.5,12.2a5,5,0,0,1,0,7h0a5,5,0,0,1-2.15,1.26,4.94,4.94,0,0,0,4.83-8.24h0a5,5,0,0,0-3.44-1.44"/><path class="cls-4" d="M32,4a4.72,4.72,0,0,0-1.34.19,4.93,4.93,0,0,1,0,9.49,5.09,5.09,0,0,0,1.34.18A4.93,4.93,0,1,0,32,4Z"/><path class="cls-5" d="M32,25.07a3.59,3.59,0,1,0,3.59,3.59A3.59,3.59,0,0,0,32,25.07Zm0,5.18a1.59,1.59,0,1,1,1.59-1.59A1.59,1.59,0,0,1,32,30.25Z"/><path class="cls-5" d="M55.07,26.07A5.92,5.92,0,0,0,49.23,31H42.76a10.77,10.77,0,0,0-2.45-5.9l4.58-4.58a5.91,5.91,0,0,0,7.62-.64,6,6,0,0,0,0-8.39h0a5.93,5.93,0,0,0-9,7.62L38.9,23.69A10.77,10.77,0,0,0,33,21.24V14.77a5.93,5.93,0,1,0-2,0v6.47a10.77,10.77,0,0,0-5.9,2.45l-4.57-4.58a5.83,5.83,0,0,0,1.09-3.42,5.93,5.93,0,1,0-5.93,5.93,6,6,0,0,0,3.42-1.1l4.58,4.58A10.77,10.77,0,0,0,21.24,31H14.78a5.93,5.93,0,1,0,0,2h6.46a10.77,10.77,0,0,0,2.45,5.9l-4.58,4.58a5.92,5.92,0,1,0,2.51,4.83,5.83,5.83,0,0,0-1.09-3.42l4.57-4.58A10.77,10.77,0,0,0,31,42.76v6.47a5.93,5.93,0,1,0,2,0V42.76a10.77,10.77,0,0,0,5.9-2.45l4.58,4.58a5.93,5.93,0,1,0,1.41-1.41L40.31,38.9A10.77,10.77,0,0,0,42.76,33h6.47a5.93,5.93,0,1,0,5.84-6.93ZM45.53,12.91a3.94,3.94,0,0,1,5.56,0h0a3.93,3.93,0,1,1-5.56,5.56h0A3.94,3.94,0,0,1,45.53,12.91Zm-17.46-4A3.93,3.93,0,1,1,32,12.86,3.93,3.93,0,0,1,28.07,8.93ZM12.91,18.47a3.93,3.93,0,1,1,5.56,0h0A3.94,3.94,0,0,1,12.91,18.47Zm-4,17.46A3.93,3.93,0,1,1,12.87,32,3.94,3.94,0,0,1,8.93,35.93ZM32,40.81a8.8,8.8,0,0,1-5.67-2.08,6.44,6.44,0,0,1,11.34,0A8.8,8.8,0,0,1,32,40.81ZM18.47,51.09a3.93,3.93,0,1,1,0-5.56h0a3.94,3.94,0,0,1,0,5.56Zm17.46,4A3.93,3.93,0,1,1,32,51.14,3.93,3.93,0,0,1,35.93,55.07Zm15.16-9.54a3.93,3.93,0,1,1-5.56,0h0a3.94,3.94,0,0,1,5.56,0Zm-12-8.33a8.44,8.44,0,0,0-14.18,0A8.76,8.76,0,0,1,23.19,32h0a8.81,8.81,0,1,1,15.9,5.21Zm16-1.27A3.93,3.93,0,0,1,51.14,32h0a3.93,3.93,0,1,1,3.93,3.93Z"/></g></svg>